<svg width="487" height="312" viewBox="0 0 487 312" fill="none" xmlns="http://www.w3.org/2000/svg">
<path d="M115.908 308.85C114.416 308.246 112.811 306.18 109.698 300.859C106.334 295.108 102.347 290.979 96.3345 287.018C93.8058 285.352 84.2678 280.267 75.1389 275.718C40.5231 258.467 30.777 251.046 18.1604 232.332C5.27873 213.224 1.93586 199.828 2.51192 169.624C2.91144 148.676 4.62756 141.661 13.924 122.973C18.8719 113.026 21.566 108.86 26.0381 104.24C30.6159 99.5105 35.8165 96.0788 45.3586 91.4909C62.4963 83.2511 74.1296 80.2501 99.7248 77.4664C113.725 75.9437 116.353 75.5002 118.393 74.3163C120.299 73.2096 125.42 65.0244 126.422 61.4808C126.81 60.108 127.353 54.6043 127.627 49.2504C127.918 43.5835 128.431 38.5213 128.855 37.1355C130.001 33.3952 132.26 30.3402 138.042 24.7133C149.331 13.7258 158.141 8.73524 168.768 7.3068C171.017 7.00451 179.181 5.88078 186.909 4.80961C202.928 2.58939 207.518 2.26024 208.707 3.24656C209.443 3.85757 209.43 4.12462 208.555 6.42687C205.519 14.4187 190.592 35.408 182.657 42.8445C176.298 48.804 170.643 51.7199 151.084 59.1259C137.204 64.3814 134.822 65.7381 131.172 70.4691C129.813 72.2304 129.157 73.5503 129.264 74.3049C129.417 75.3869 129.769 75.4926 135.168 76.079C146.542 77.3145 162.942 80.4132 171.727 82.9867C186.967 87.4508 202.853 96.1235 211.532 104.717C228.153 121.173 236.408 158.176 230.799 191.073C228.732 203.194 225.484 212.651 218.945 225.585C209.703 243.863 198.298 256.35 180.428 267.753C173.906 271.916 158.795 279.357 147.648 283.895C130.202 290.998 127.283 293.261 123.179 302.863C122.089 305.414 120.824 307.913 120.368 308.417C119.496 309.38 117.659 309.558 115.908 308.85Z" fill="#656565"/>
<path d="M105.872 196.592C103.76 196.592 102.128 196.016 100.976 194.864C99.872 193.712 99.464 192.104 99.752 190.04C100.472 184.808 102.32 180.416 105.296 176.864C108.272 173.264 112.808 169.736 118.904 166.28C120.488 165.368 121.544 164.432 122.072 163.472C122.6 162.512 122.864 161.24 122.864 159.656C122.864 158.648 122.432 157.688 121.568 156.776C120.704 155.816 119.6 155.336 118.256 155.336C115.904 155.336 114.08 156.344 112.784 158.36C111.968 159.704 111.32 160.688 110.84 161.312C110.408 161.888 109.76 162.416 108.896 162.896C108.032 163.376 107.024 163.616 105.872 163.616H88.52C86.408 163.616 84.776 163.04 83.624 161.888C82.52 160.688 82.136 159.056 82.472 156.992C83.816 147.824 87.776 140.624 94.352 135.392C100.928 130.112 109.088 127.472 118.832 127.472C123.968 127.472 128.72 128.336 133.088 130.064C137.504 131.744 141.2 134.024 144.176 136.904C147.2 139.784 149.552 143.144 151.232 146.984C152.912 150.776 153.752 154.784 153.752 159.008C153.752 165.2 152.24 170.48 149.216 174.848C146.192 179.168 141.368 183.176 134.744 186.872C133.064 187.832 131.84 189.152 131.072 190.832C130.256 192.896 129.368 194.384 128.408 195.296C127.496 196.16 126.152 196.592 124.376 196.592H105.872ZM103.496 227.192C100.088 224.168 98.384 220.448 98.384 216.032C98.384 211.616 100.088 207.896 103.496 204.872C106.904 201.848 111.152 200.336 116.24 200.336C121.328 200.336 125.576 201.848 128.984 204.872C132.392 207.896 134.096 211.616 134.096 216.032C134.096 220.448 132.392 224.168 128.984 227.192C125.576 230.216 121.328 231.728 116.24 231.728C111.152 231.728 106.904 230.216 103.496 227.192Z" fill="white"/>
<path d="M264.104 156C262.227 156 261.288 155.061 261.288 153.184V114.016C261.288 112.139 262.227 111.2 264.104 111.2H278.952C283.283 111.2 287.155 112.149 290.568 114.048C294.003 115.947 296.669 118.603 298.568 122.016C300.467 125.408 301.416 129.269 301.416 133.6C301.416 137.931 300.467 141.803 298.568 145.216C296.669 148.608 294.003 151.253 290.568 153.152C287.155 155.051 283.283 156 278.952 156H264.104ZM277.672 144.224C280.765 144.224 283.208 143.275 285 141.376C286.813 139.456 287.72 136.864 287.72 133.6C287.72 130.336 286.813 127.755 285 125.856C283.208 123.936 280.765 122.976 277.672 122.976H274.984V144.224H277.672ZM307.851 114.016C307.851 112.139 308.789 111.2 310.667 111.2H334.859C336.736 111.2 337.675 112.139 337.675 114.016V119.776C337.675 121.653 336.736 122.592 334.859 122.592H321.547V127.904H333.323C335.2 127.904 336.139 128.843 336.139 130.72V136.224C336.139 138.101 335.2 139.04 333.323 139.04H321.547V144.608H335.435C337.312 144.608 338.251 145.547 338.251 147.424V153.184C338.251 155.061 337.312 156 335.435 156H310.667C308.789 156 307.851 155.061 307.851 153.184V114.016ZM366.861 156.768C362.402 156.768 358.338 155.755 354.669 153.728C351.021 151.68 348.162 148.885 346.093 145.344C344.023 141.803 342.989 137.888 342.989 133.6C342.989 129.163 343.938 125.195 345.837 121.696C347.735 118.176 350.434 115.424 353.933 113.44C357.431 111.435 361.421 110.432 365.901 110.432C370.658 110.432 374.861 111.648 378.509 114.08C382.157 116.512 384.738 119.936 386.253 124.352C386.573 125.312 386.498 126.08 386.029 126.656C385.581 127.232 384.845 127.52 383.821 127.52H374.957C374.189 127.52 373.57 127.349 373.101 127.008C372.631 126.645 372.162 126.08 371.693 125.312C371.095 124.352 370.317 123.595 369.357 123.04C368.418 122.485 367.373 122.208 366.221 122.208C363.234 122.208 360.898 123.275 359.213 125.408C357.527 127.52 356.685 130.251 356.685 133.6C356.685 136.907 357.623 139.637 359.501 141.792C361.378 143.925 363.831 144.992 366.861 144.992C370.999 144.992 374.594 143.531 377.645 140.608C378.925 139.328 380.247 139.2 381.613 140.224L384.493 142.368C385.986 143.499 386.253 144.757 385.293 146.144C383.095 149.387 380.429 151.968 377.293 153.888C374.178 155.808 370.701 156.768 366.861 156.768ZM393.314 142.72C392.055 139.861 391.426 136.821 391.426 133.6C391.426 130.379 392.055 127.339 393.314 124.48C394.573 121.621 396.279 119.168 398.434 117.12C400.61 115.051 403.213 113.419 406.242 112.224C409.293 111.029 412.525 110.432 415.938 110.432C419.351 110.432 422.573 111.029 425.602 112.224C428.653 113.419 431.255 115.051 433.41 117.12C435.586 119.168 437.303 121.621 438.562 124.48C439.821 127.339 440.45 130.379 440.45 133.6C440.45 136.821 439.821 139.861 438.562 142.72C437.303 145.579 435.586 148.043 433.41 150.112C431.255 152.16 428.653 153.781 425.602 154.976C422.573 156.171 419.351 156.768 415.938 156.768C412.525 156.768 409.293 156.171 406.242 154.976C403.213 153.781 400.61 152.16 398.434 150.112C396.279 148.043 394.573 145.579 393.314 142.72ZM408.194 125.472C406.146 127.627 405.122 130.336 405.122 133.6C405.122 136.864 406.146 139.584 408.194 141.76C410.263 143.915 412.845 144.992 415.938 144.992C419.031 144.992 421.602 143.915 423.65 141.76C425.719 139.584 426.754 136.864 426.754 133.6C426.754 130.336 425.719 127.627 423.65 125.472C421.602 123.296 419.031 122.208 415.938 122.208C412.845 122.208 410.263 123.296 408.194 125.472ZM460.353 141.024V153.184C460.353 155.061 459.414 156 457.537 156H449.729C447.852 156 446.913 155.061 446.913 153.184V114.016C446.913 112.139 447.852 111.2 449.729 111.2H464.961C467.969 111.2 470.7 111.829 473.153 113.088C475.606 114.325 477.537 116.085 478.945 118.368C480.374 120.651 481.089 123.232 481.089 126.112C481.089 128.821 480.46 131.275 479.201 133.472C477.942 135.648 476.214 137.387 474.017 138.688L480.929 152.672C481.398 153.653 481.441 154.453 481.057 155.072C480.673 155.691 479.937 156 478.849 156H470.177C468.641 156 467.553 155.285 466.913 153.856L461.249 141.024H460.353ZM463.105 131.552C464.449 131.552 465.558 131.093 466.433 130.176C467.329 129.237 467.777 128.032 467.777 126.56C467.777 125.088 467.329 123.893 466.433 122.976C465.558 122.037 464.449 121.568 463.105 121.568H460.353V131.552H463.105ZM274.984 193.304V204.184C274.984 206.061 274.045 207 272.168 207H264.104C262.227 207 261.288 206.061 261.288 204.184V165.016C261.288 163.139 262.227 162.2 264.104 162.2H279.336C283.923 162.2 287.752 163.693 290.824 166.68C293.917 169.645 295.464 173.336 295.464 177.752C295.464 182.168 293.917 185.869 290.824 188.856C287.752 191.821 283.923 193.304 279.336 193.304H274.984ZM277.352 182.936C278.76 182.936 279.912 182.456 280.808 181.496C281.704 180.515 282.152 179.267 282.152 177.752C282.152 176.237 281.704 175 280.808 174.04C279.912 173.059 278.76 172.568 277.352 172.568H274.984V182.936H277.352ZM314.734 204.184C314.734 206.061 313.795 207 311.918 207H303.854C301.977 207 301.038 206.061 301.038 204.184V165.016C301.038 163.139 301.977 162.2 303.854 162.2H311.918C313.795 162.2 314.734 163.139 314.734 165.016V204.184ZM356.792 162.2C357.709 162.2 358.413 162.456 358.904 162.968C359.395 163.459 359.619 164.163 359.576 165.08C359.171 174.509 356.749 181.197 352.312 185.144L360.984 203.704C361.432 204.685 361.453 205.485 361.048 206.104C360.664 206.701 359.939 207 358.872 207H350.52C348.941 207 347.843 206.296 347.224 204.888L340.248 189.4H336.984V204.184C336.984 206.061 336.045 207 334.168 207H326.104C324.227 207 323.288 206.061 323.288 204.184V165.016C323.288 163.139 324.227 162.2 326.104 162.2H334.168C336.045 162.2 336.984 163.139 336.984 165.016V177.624H338.072C342.829 177.624 345.432 173.453 345.88 165.112C345.987 163.171 346.936 162.2 348.728 162.2H356.792ZM388.106 200.024C386.548 200.024 385.45 199.309 384.81 197.88L377.642 181.656V204.184C377.642 206.061 376.703 207 374.826 207H368.042C366.164 207 365.226 206.061 365.226 204.184V165.016C365.226 163.139 366.164 162.2 368.042 162.2H377.29C378.847 162.2 379.935 162.915 380.554 164.344L389.738 185.304L398.922 164.344C399.54 162.915 400.628 162.2 402.186 162.2H411.434C413.311 162.2 414.25 163.139 414.25 165.016V204.184C414.25 206.061 413.311 207 411.434 207H404.65C402.772 207 401.834 206.061 401.834 204.184V181.656L394.666 197.88C394.026 199.309 392.927 200.024 391.37 200.024H388.106ZM436.547 204.184C436.547 206.061 435.608 207 433.731 207H425.667C423.789 207 422.851 206.061 422.851 204.184V165.016C422.851 163.139 423.789 162.2 425.667 162.2H433.731C435.608 162.2 436.547 163.139 436.547 165.016V204.184ZM445.101 165.016C445.101 163.139 446.039 162.2 447.917 162.2H457.708C459.309 162.2 460.386 162.936 460.941 164.408L470.061 188.184V165.016C470.061 163.139 470.999 162.2 472.877 162.2H479.661C481.538 162.2 482.477 163.139 482.477 165.016V204.184C482.477 206.061 481.538 207 479.661 207H469.869C468.269 207 467.191 206.264 466.637 204.792L457.517 181.016V204.184C457.517 206.061 456.578 207 454.701 207H447.917C446.039 207 445.101 206.061 445.101 204.184V165.016ZM261.288 216.016C261.288 214.139 262.227 213.2 264.104 213.2H287.656C289.533 213.2 290.472 214.139 290.472 216.016V222.032C290.472 223.909 289.533 224.848 287.656 224.848H274.984V231.568H286.12C287.997 231.568 288.936 232.507 288.936 234.384V240.4C288.936 242.277 287.997 243.216 286.12 243.216H274.984V255.184C274.984 257.061 274.045 258 272.168 258H264.104C262.227 258 261.288 257.061 261.288 255.184V216.016ZM310.047 255.184C310.047 257.061 309.108 258 307.231 258H299.167C297.289 258 296.351 257.061 296.351 255.184V216.016C296.351 214.139 297.289 213.2 299.167 213.2H307.231C309.108 213.2 310.047 214.139 310.047 216.016V255.184ZM318.601 216.016C318.601 214.139 319.539 213.2 321.417 213.2H331.208C332.809 213.2 333.886 213.936 334.441 215.408L343.561 239.184V216.016C343.561 214.139 344.499 213.2 346.377 213.2H353.161C355.038 213.2 355.977 214.139 355.977 216.016V255.184C355.977 257.061 355.038 258 353.161 258H343.369C341.769 258 340.691 257.264 340.137 255.792L331.017 232.016V255.184C331.017 257.061 330.078 258 328.201 258H321.417C319.539 258 318.601 257.061 318.601 255.184V216.016ZM367.354 258C365.477 258 364.538 257.061 364.538 255.184V216.016C364.538 214.139 365.477 213.2 367.354 213.2H382.202C386.533 213.2 390.405 214.149 393.818 216.048C397.253 217.947 399.919 220.603 401.818 224.016C403.717 227.408 404.666 231.269 404.666 235.6C404.666 239.931 403.717 243.803 401.818 247.216C399.919 250.608 397.253 253.253 393.818 255.152C390.405 257.051 386.533 258 382.202 258H367.354ZM380.922 246.224C384.015 246.224 386.458 245.275 388.25 243.376C390.063 241.456 390.97 238.864 390.97 235.6C390.97 232.336 390.063 229.755 388.25 227.856C386.458 225.936 384.015 224.976 380.922 224.976H378.234V246.224H380.922ZM411.101 216.016C411.101 214.139 412.039 213.2 413.917 213.2H438.109C439.986 213.2 440.925 214.139 440.925 216.016V221.776C440.925 223.653 439.986 224.592 438.109 224.592H424.797V229.904H436.573C438.45 229.904 439.389 230.843 439.389 232.72V238.224C439.389 240.101 438.45 241.04 436.573 241.04H424.797V246.608H438.685C440.562 246.608 441.501 247.547 441.501 249.424V255.184C441.501 257.061 440.562 258 438.685 258H413.917C412.039 258 411.101 257.061 411.101 255.184V216.016ZM461.791 243.024V255.184C461.791 257.061 460.852 258 458.975 258H451.167C449.289 258 448.351 257.061 448.351 255.184V216.016C448.351 214.139 449.289 213.2 451.167 213.2H466.399C469.407 213.2 472.137 213.829 474.591 215.088C477.044 216.325 478.975 218.085 480.383 220.368C481.812 222.651 482.527 225.232 482.527 228.112C482.527 230.821 481.897 233.275 480.639 235.472C479.38 237.648 477.652 239.387 475.455 240.688L482.367 254.672C482.836 255.653 482.879 256.453 482.495 257.072C482.111 257.691 481.375 258 480.287 258H471.615C470.079 258 468.991 257.285 468.351 255.856L462.687 243.024H461.791ZM464.543 233.552C465.887 233.552 466.996 233.093 467.871 232.176C468.767 231.237 469.215 230.032 469.215 228.56C469.215 227.088 468.767 225.893 467.871 224.976C466.996 224.037 465.887 223.568 464.543 223.568H461.791V233.552H464.543Z" fill="black"/>
</svg>
